<svg xmlns="http://www.w3.org/2000/svg" viewBox="0 0 512 512" width="512" height="512"><rect width="512" height="512" rx="90" fill="#ffffff"/><g transform="translate(256,256) scale(7.5)" fill="none" stroke="#C9907A" stroke-linecap="round" stroke-linejoin="round" stroke-width="1.4"><path d="M0 -30 C-2 -38,-7 -40,-8 -46 C-6 -39,-2 -36,0 -32" fill="#C9907A" fill-opacity="0.2"/><path d="M0 -30 C2 -38,7 -40,8 -46 C6 -39,2 -36,0 -32" fill="#C9907A" fill-opacity="0.2"/><path d="M0 -30 C0 -39,0 -42,0 -48 C0 -42,0 -39,0 -32" fill="#C9907A" fill-opacity="0.2"/><path d="M0 -28 C-5 -34,-12 -33,-15 -38 C-11 -32,-6 -30,0 -28" fill="#C9907A" fill-opacity="0.15" stroke-width="1.1"/><path d="M0 -28 C5 -34,12 -33,15 -38 C11 -32,6 -30,0 -28" fill="#C9907A" fill-opacity="0.15" stroke-width="1.1"/><rect x="-6" y="-28" width="12" height="7" rx="1.5" fill="#ffffff"/><rect x="-4.5" y="-21" width="9" height="7" rx="1" fill="#ffffff"/><path d="M-13 -14 Q-16 -14,-16 -11 L-16 14 Q-16 18,-12 18 L12 18 Q16 18,16 14 L16 -11 Q16 -14,13 -14 Z" fill="#ffffff"/><line x1="-10" y1="-1" x2="10" y2="-1" stroke-width="0.8" opacity="0.6"/><ellipse cx="0" cy="9" rx="7" ry="5" stroke-width="0.9" opacity="0.6"/></g></svg>