<svg xmlns="http://www.w3.org/2000/svg" viewBox="0 0 512 512" width="512" height="512"><rect width="512" height="512" rx="80" fill="#ffffff"/><g transform="translate(256,256) scale(8.5) translate(-22,-28)"><path d="M22 19 C19 19 17 15 17 11 C17 7 19 4 22 4 C25 4 27 7 27 11 C27 15 25 19 22 19Z" fill="#C4857A" fill-opacity="0.3" stroke="#C4857A" stroke-width="0.9"/><path d="M22 19 C20 18 16 16 14 12 C12 9 12 5 15 4 C18 3 21 5 22 9 C23 12 23 17 22 19Z" fill="#C4857A" fill-opacity="0.25" stroke="#C4857A" stroke-width="0.9"/><path d="M22 19 C24 18 28 16 30 12 C32 9 32 5 29 4 C26 3 23 5 22 9 C21 12 21 17 22 19Z" fill="#C4857A" fill-opacity="0.25" stroke="#C4857A" stroke-width="0.9"/><path d="M22 19 C21 17 17 17 13 15 C9 13 7 10 9 7 C11 4 15 4 18 7 C20 9 22 15 22 19Z" fill="#C4857A" fill-opacity="0.2" stroke="#C4857A" stroke-width="0.8"/><path d="M22 19 C23 17 27 17 31 15 C35 13 37 10 35 7 C33 4 29 4 26 7 C24 9 22 15 22 19Z" fill="#C4857A" fill-opacity="0.2" stroke="#C4857A" stroke-width="0.8"/><rect x="17" y="19" width="10" height="5" rx="1.5" fill="white" stroke="#C4857A" stroke-width="1"/><rect x="19" y="24" width="6" height="5" rx="0.8" fill="white" stroke="#C4857A" stroke-width="1"/><ellipse cx="22" cy="43" rx="13" ry="10" fill="white" stroke="#C4857A" stroke-width="1.1"/><line x1="12" y1="43" x2="32" y2="43" stroke="#C4857A" stroke-width="0.7" opacity="0.5"/><ellipse cx="22" cy="46" rx="7" ry="3.5" fill="none" stroke="#C4857A" stroke-width="0.7" opacity="0.5"/></g></svg>