<svg xmlns="http://www.w3.org/2000/svg" viewBox="0 0 480 100" width="480" height="100"><rect width="480" height="100" fill="#ffffff"/><text x="12" y="52" font-family="Palatino Linotype,Palatino,Book Antiqua,Georgia,serif" font-size="40" font-weight="400" fill="#C9907A">esencia</text><text x="188" y="52" font-family="Palatino Linotype,Palatino,Book Antiqua,Georgia,serif" font-size="40" font-weight="400" font-style="italic" fill="#A06050">de</text><text x="224" y="52" font-family="Palatino Linotype,Palatino,Book Antiqua,Georgia,serif" font-size="40" font-weight="400" fill="#C9907A">belleza.es</text><g transform="translate(426,2)" fill="none" stroke="#C9907A" stroke-linecap="round" stroke-linejoin="round"><path d="M18 18 C16 11,11 9,10 4 C11 10,15 13,18 15" stroke-width="1.3" fill="#C9907A" fill-opacity="0.18"/><path d="M18 18 C18 10,18 7,18 3 C18 7,18 10,18 15" stroke-width="1.3" fill="#C9907A" fill-opacity="0.18"/><path d="M18 18 C20 11,25 9,26 4 C25 10,21 13,18 15" stroke-width="1.3" fill="#C9907A" fill-opacity="0.18"/><path d="M18 20 C13 15,7 15,4 11 C8 15,13 17,18 18" stroke-width="1.1" fill="#C9907A" fill-opacity="0.12"/><path d="M18 20 C23 15,29 15,32 11 C28 15,23 17,18 18" stroke-width="1.1" fill="#C9907A" fill-opacity="0.12"/><rect x="13" y="18" width="10" height="6" rx="1" stroke-width="1.2" fill="#ffffff"/><rect x="11.5" y="13" width="13" height="6" rx="1.5" stroke-width="1.2" fill="#ffffff"/><path d="M8 24 Q6 24,6 27 L6 48 Q6 52,10 52 L26 52 Q30 52,30 48 L30 27 Q30 24,28 24 Z" stroke-width="1.3" fill="#ffffff"/><line x1="10" y1="35" x2="26" y2="35" stroke-width="0.8" opacity="0.6"/><ellipse cx="18" cy="43" rx="6" ry="4" stroke-width="0.9" opacity="0.55"/></g><text x="240" y="76" font-family="Raleway,Helvetica Neue,Arial,sans-serif" font-size="10.5" font-weight="300" fill="#C9907A" letter-spacing="3" text-anchor="middle" opacity="0.85">Peluceria - Estetica - Perfumes</text></svg>